PathFileType	4	(X/Y/Z)	C:/Users/beibeiliu/ov580/test_trc/User1\sequence.15_training_dense_right.trc
DataRate	CameraRate	NumFrames	NumMarkers	Units	OrigDataRate	OrigDataStartFrame	OrigNumFrames
120	120	8	19	mm	120	239	273
Frame#	Time	ThumbCMC			ThumbMCP			ThumbIP			ThumbTip			IndexMCP			IndexPIP			IndexTip			MiddleMCP			MiddlePIP			MiddleTip			RingMCP			RingPIP			RingTip			PinkyMCP			PinkyPIP			PinkyTip			BackHand1			BackHand2			BackHand3	
		X0	Y0	Z0	X1	Y1	Z1	X2	Y2	Z2	X3	Y3	Z3	X4	Y4	Z4	X5	Y5	Z5	X6	Y6	Z6	X7	Y7	Z7	X8	Y8	Z8	X9	Y9	Z9	X10	Y10	Z10	X11	Y11	Z11	X12	Y12	Z12	X13	Y13	Z13	X14	Y14	Z14	X15	Y15	Z15	X16	Y16	Z16	X17	Y17	Z17	X18	Y18	Z18	
238	1.98333	151.818	88.6997	50.4423	137.86	67.1424	17.262	134.913	56.0716	-11.6296	149.843	40.3211	-31.9539	177.141	119.063	-25.6635	175.308	122.6	-50.4823	182.101	119.889	-77.8781	183.603	88.902	-37.3908	165.089	57.1338	-34.3037	162.823	57.5415	0.992864	198.236	72.2886	-32.6085	180.014	45.0569	-29.2569	177.625	47.4534	8.1132	227.41	73.2554	-18.0792	226.296	75.1963	-35.4698	230.195	84.324	-57.9096	217.718	96.6642	27.7895	221.098	88.7494	61.5716	189.371	112.552	44.5171	
239	1.99167	149.937	88.6124	45.2978	139.152	66.078	17.4813	138.199	53.4991	-10.6233	158.569	38.6484	-32.9463	173.288	120.599	-25.4326	176.878	120.505	-50.9972	182.116	119.609	-78.2846	184.075	87.8138	-37.1522	167.218	57.5985	-37.6018	161.505	60.3323	2.6151	198.617	68.7116	-34.0018	178.995	43.3029	-26.3405	177.885	46.3489	8.59234	227.404	72.0664	-15.321	225.094	73.8474	-34.8866	232.966	81.1874	-59.0425	216.151	94.7575	23.6855	218.19	91.2728	58.9055	189.833	109.94	46.161	
240	2	154.028	86.3324	46.9909	135.812	62.8408	15.0612	139.876	50.9642	-9.58306	156.554	33.4122	-30.0457	176.673	116.162	-28.7996	178.994	116.68	-55.486	180.705	115.186	-77.3863	183.453	82.7045	-37.9919	164.346	56.5275	-35.7433	161.365	61.5136	5.97933	197.562	67.4383	-31.5547	176.367	42.0759	-25.1416	173.376	43.788	5.46592	227.126	70.4105	-19.7409	224.151	72.0027	-35.0849	227.92	77.9383	-56.6645	219.598	91.0284	27.1717	222.593	88.3002	63.0029	191.076	109.93	43.8802	
241	2.00833	152.515	85.1654	46.5052	136.253	58.8885	14.5545	141.855	46.9636	-11.051	163.336	31.5519	-27.459	173.497	112.507	-27.6159	175.986	112.664	-52.1437	177.921	111.139	-78.0235	180.769	80.2943	-36.704	160.895	53.2339	-33.9338	165.174	55.0467	4.56923	196.222	64.3894	-31.8738	175.741	37.7474	-24.0803	176.32	39.4819	7.37401	224.579	67.9177	-16.6797	223.471	68.2575	-35.9522	228.365	75.4775	-60.5328	218.105	91.0048	26.6206	218.488	87.224	60.8179	189.963	107.8	41.9597	
242	2.01667	151.138	82.6174	45.5639	138.349	56.0015	17.3894	139.172	39.8035	-9.21951	159.835	25.2642	-22.3276	169.063	109.604	-26.0658	172.449	107.293	-53.4371	178.071	103.199	-78.9472	180.02	74.5045	-35.7966	157.173	47.7509	-30.2215	162.493	51.6681	5.84756	195.595	59.6765	-29.6362	172.968	33.9492	-23.5852	175.809	37.6672	12.3318	223.261	62.9416	-15.1412	223.028	63.2541	-38.736	224.94	72.1741	-60.9976	213.892	86.8052	22.8949	219.496	84.8079	60.392	187.851	104.059	45.3051	
243	2.025	148.189	78.1174	50.7573	133.916	49.4549	21.1719	138.685	33.6789	-5.75479	156.828	15.028	-21.6857	168.335	100.059	-32.953	167.483	97.7919	-55.47	171.919	93.33	-79.831	177.362	66.5128	-34.2018	157.03	37.8307	-29.7941	159.331	47.4643	9.61572	189.309	50.9975	-29.6572	169.178	27.4617	-21.3635	169.552	31.3147	11.4266	216.597	56.5768	-15.5436	216.944	55.8942	-37.6311	218.57	60.1183	-56.9603	215.786	79.7214	20.7636	217.292	80.5611	57.4083	185.631	101.037	41.9704	
244	2.03333	146.553	71.7051	52.9092	133.25	41.7301	24.1132	135.528	22.9852	-2.57102	152.985	4.30759	-16.2416	163.384	85.4784	-31.746	162.218	81.6929	-57.1847	164.663	75.3814	-83.0611	169.701	55.4817	-33.2168	152.909	26.2544	-23.3301	156.315	42.2931	13.4119	186.706	37.7051	-28.1653	168.507	12.9711	-16.5526	167.476	24.9272	18.9604	215.286	45.3805	-14.4805	212.71	44.2081	-34.8707	216.262	47.2135	-60.0979	210.229	75.3769	23.3485	215.049	75.7314	57.2118	181.751	94.6057	36.8571	
245	2.04167	143.749	67.1387	54.5547	129.414	35.5716	27.9044	131.412	17.8628	6.58038	149.33	-1.90475	-8.67378	156.379	75.1605	-28.8315	152.515	69.7563	-52.7607	158.616	59.8352	-80.9086	166.557	41.9105	-32.21	148.759	16.8473	-19.3077	151.981	32.7713	16.0075	184.434	27.5595	-24.4154	162.299	5.27137	-10.0726	165.254	14.238	20.0267	212.158	36.7188	-16.0414	209.128	35.0084	-32.5794	210.039	38.8282	-56.5988	206.047	67.3679	19.6899	211.828	73.8538	57.549	177.418	88.5008	39.7564	
